<svg
  viewBox="0 0 800 255"
  fill="none"
  xmlns="http://www.w3.org/2000/svg"
>
  <rect width="800" height="255" fill="#141414" />
  <path
    fill-rule="evenodd"
    clip-rule="evenodd"
    d="M715.79 184.078C743.088 165.472 745.57 138.234 745.57 126.149C745.57 105.625 737.743 91.6218 733.353 85.1C723.999 71.6726 707.391 57.478 671.693 54.6008C665.585 54.0253 659.667 54.0253 653.558 54.0253C623.397 54.4089 606.979 61.3144 595.526 69.179C584.454 76.6599 566.319 93.7318 566.319 127.876C566.319 136.507 566.891 154.155 581.209 171.61C587.89 179.667 594.571 184.078 598.198 186.188C609.079 192.71 626.451 199.04 655.085 199.04C674.175 199.04 686.011 196.739 693.837 194.437C701.855 192.135 708.727 188.874 715.79 184.078ZM683.72 93.9236C688.683 98.3355 695.937 109.269 695.937 126.533C695.937 141.878 689.828 159.142 674.748 165.856C667.494 169.117 658.903 169.117 656.612 169.117C648.404 169.117 626.642 167.39 618.624 143.221C616.142 136.124 615.952 129.218 615.952 126.725C615.952 110.228 623.206 93.9236 639.05 87.21C644.968 84.7163 650.122 84.1409 656.422 84.1409C663.676 84.1409 667.303 85.1 670.739 86.2509C677.229 88.5527 681.811 92.0054 683.72 93.9236ZM538.789 172.569C552.533 156.457 553.106 134.397 553.106 128.259C553.106 120.97 552.724 103.706 541.27 87.21C533.253 75.5091 519.508 62.2736 488.201 59.5881C482.856 59.2045 477.511 59.0127 472.166 59.0127H395.617V194.437H481.138C494.692 194.437 499.655 193.478 506.527 191.751C514.736 189.641 520.844 186.38 523.708 184.846C531.725 180.242 536.498 175.447 538.789 172.569ZM493.546 98.5274C505.382 107.735 505.954 122.888 505.954 127.108C505.954 130.753 505.763 138.042 501.564 146.674C498.319 153.579 492.401 161.06 475.793 163.17C472.929 163.554 470.066 163.746 467.393 163.746H442.768V91.2382H465.866C465.997 91.2382 466.146 91.2376 466.311 91.2369C470.258 91.2204 483.836 91.1636 493.546 98.5274ZM372.621 194.437H228.685V59.0127H370.903V89.32H276.982V111.571H363.839V142.07H276.982V163.746H372.621V194.437ZM155.847 194.437H209.107L175.509 140.344C182.381 138.617 184.863 137.658 188.108 135.74C205.098 126.341 206.434 108.31 206.434 101.98C206.434 89.7037 202.044 81.6473 199.562 77.6191C188.681 60.3554 171.309 59.0127 153.174 59.0127H53.9082V194.437H102.396V145.139H127.976L155.847 194.437ZM156.228 95.2664C158.137 97.9519 158.328 101.021 158.328 102.172C158.328 103.706 158.137 106.776 155.656 109.845C152.601 113.489 147.829 114.64 138.666 114.64H102.396V89.7037H142.484C147.638 89.7037 152.983 90.4709 156.228 95.2664Z"
    fill="white"
  />
</svg>
